<?xml version="1.0" standalone="no"?>
<!DOCTYPE svg PUBLIC "-//W3C//DTD SVG 20010904//EN"
 "http://www.w3.org/TR/2001/REC-SVG-20010904/DTD/svg10.dtd">
<svg version="1.0" xmlns="http://www.w3.org/2000/svg"
 width="640.000000pt" height="128.000000pt" viewBox="0 0 640.000000 128.000000"
 preserveAspectRatio="xMidYMid meet">
<metadata>
Created by potrace 1.15, written by Peter Selinger 2001-2017
</metadata>
<g transform="translate(0.000000,128.000000) scale(0.100000,-0.100000)"
fill="#000000" stroke="none">
<path d="M571 1009 c-152 -47 -241 -210 -197 -363 22 -75 246 -376 280 -376
15 0 50 39 133 148 136 180 153 213 153 307 0 116 -60 214 -163 264 -51 25
-156 35 -206 20z m150 -220 c40 -43 39 -81 -5 -125 -44 -44 -86 -46 -127 -5
-21 22 -29 39 -29 66 0 51 44 95 95 95 28 0 44 -7 66 -31z"/>
<path d="M1747 1013 c-4 -3 -7 -24 -7 -45 l0 -38 -85 0 c-84 0 -85 0 -85 -25
0 -18 7 -26 25 -31 14 -3 25 -14 25 -23 1 -59 61 -533 69 -550 20 -37 45 -41
235 -41 253 0 228 -29 266 313 17 148 30 275 30 282 0 8 10 15 23 17 16 2 22
10 22 28 0 24 -2 25 -82 28 l-83 3 0 32 c0 18 -5 38 -12 45 -13 13 -329 18
-341 5z m413 -155 c0 -44 -53 -497 -60 -516 -9 -22 -12 -22 -184 -22 l-175 0
-5 33 c-7 39 -56 483 -56 503 0 12 38 14 240 14 185 0 240 -3 240 -12z"/>
<path d="M1837 813 c-4 -3 -7 -97 -7 -209 0 -177 2 -203 16 -208 39 -15 44 8
44 208 0 136 -4 196 -12 204 -13 13 -31 16 -41 5z"/>
<path d="M1977 814 c-4 -4 -7 -98 -7 -210 0 -179 2 -203 17 -208 9 -4 20 -3
25 2 5 5 7 100 6 213 -3 175 -5 204 -18 207 -9 1 -19 0 -23 -4z"/>
<path d="M3219 793 c-169 -171 -210 -218 -228 -262 -20 -48 -21 -55 -7 -69 13
-13 23 -13 78 -2 l63 13 212 211 213 210 -52 53 c-29 29 -57 53 -63 53 -6 0
-103 -93 -216 -207z m237 116 c4 -7 -70 -88 -176 -194 -169 -169 -220 -211
-220 -182 0 12 370 387 382 387 4 0 10 -5 14 -11z"/>
<path d="M2870 970 c-19 -19 -20 -32 -20 -330 0 -297 1 -311 20 -330 19 -19
33 -20 330 -20 298 0 311 1 330 20 19 19 20 31 18 233 -3 204 -4 212 -23 212
-19 0 -20 -8 -23 -195 -2 -169 -4 -197 -19 -208 -24 -17 -554 -17 -571 0 -15
15 -17 545 -2 568 7 12 44 16 192 20 175 5 183 6 183 25 0 19 -8 20 -197 23
-187 2 -199 1 -218 -18z"/>
<path d="M4349 976 c-228 -81 -295 -371 -125 -542 72 -71 143 -97 251 -92 60
4 92 11 130 30 l50 26 63 -60 c52 -50 65 -58 77 -48 24 20 19 31 -42 92 -53
53 -56 59 -41 75 65 75 87 222 48 326 -30 79 -108 157 -185 186 -64 24 -169
28 -226 7z m216 -66 c172 -82 211 -300 78 -435 -65 -65 -196 -96 -278 -65
-225 84 -237 393 -20 496 64 31 161 32 220 4z"/>
<path d="M5662 975 c-50 -22 -97 -62 -117 -99 -12 -22 -34 -41 -58 -53 -79
-35 -124 -138 -98 -224 27 -90 110 -143 216 -137 56 3 60 4 60 28 0 24 -3 25
-71 31 -83 6 -119 26 -140 74 -19 47 -18 84 6 122 19 32 66 63 93 63 8 0 20
14 27 30 35 84 101 124 196 118 73 -5 121 -35 158 -102 14 -26 32 -43 50 -47
52 -14 96 -72 96 -126 0 -42 -32 -94 -71 -115 -22 -12 -55 -18 -95 -18 -48 0
-63 -4 -68 -16 -13 -35 14 -47 96 -42 68 4 83 9 116 34 57 46 85 107 78 173
-6 70 -41 122 -100 150 -25 12 -48 31 -51 41 -10 31 -100 105 -143 118 -53 16
-139 15 -180 -3z"/>
<path d="M5676 688 c-63 -52 -84 -90 -53 -101 16 -6 57 16 82 43 l20 22 5
-173 5 -174 25 0 25 0 3 173 2 173 46 -35 c47 -36 74 -38 74 -5 0 22 -125 129
-151 129 -9 0 -47 -24 -83 -52z"/>
</g>
</svg>
