<?xml version="1.0" standalone="no"?><!DOCTYPE svg PUBLIC "-//W3C//DTD SVG 1.1//EN" "http://www.w3.org/Graphics/SVG/1.1/DTD/svg11.dtd"><svg t="1546351579117" class="icon" style="" viewBox="0 0 1024 1024" version="1.1" xmlns="http://www.w3.org/2000/svg" p-id="2604" xmlns:xlink="http://www.w3.org/1999/xlink" width="200" height="200"><defs><style type="text/css"></style></defs><path d="M324.7104 600.3712l220.1088 127.1296 141.312-80.7424-220.0576-127.1808-141.3632 80.7936z" fill="#F6F6F6" p-id="2605"></path><path d="M867.9936 824.8832l-167.168 96.4608-89.4976-51.6608 137.8304-122.7776 118.8352 77.9776z" fill="#CAF3FF" p-id="2606"></path><path d="M907.3152 740.096c0-81.2032-55.0912-179.2-124.4672-223.6928-27.392-102.7584-99.584-206.5408-184.32-255.488s-156.8256-28.5696-184.32 42.3936c-72.6016-41.7792-131.4304-7.68-131.4304 76.1856 0 79.2576 52.5312 174.6944 119.6032 220.4672v0.6656l382.6688 220.928v-0.4096c68.3008 33.8944 122.2656-0.7168 122.2656-81.0496z" fill="#F6F6F6" p-id="2607"></path><path d="M783.872 517.12l-166.5536 96.1536 7.3216 115.5584 86.3232 66.56-78.6432 62.1568 1.536 25.1392 66.9696 38.912L860.16 829.44c28.7744-11.264 47.0528-42.496 47.0528-89.2416 0.1024-80.896-54.4768-178.432-123.3408-223.0784z" fill="#F2F2F2" p-id="2608"></path><path d="M415.744 344.1152L248.576 440.6272l-89.4976-51.712 167.1168-96.512 89.5488 51.712z" fill="#CAF3FF" p-id="2609"></path><path d="M247.5008 400.8448L414.72 304.3328l-0.4096-1.1776c-40.96-23.5008-77.312-22.9888-101.4272-3.1232L160.6144 388.0448z" fill="#F2F2F2" p-id="2610"></path><path d="M551.5264 297.8816L384.3584 394.3936 294.8608 342.7328l167.1168-96.512 89.5488 51.6608z" fill="#F6F6F6" p-id="2611"></path><path d="M324.7104 339.6608v260.7104l141.3632-80.7936V258.8672L324.7104 339.6608z" fill="#D7D8D8" p-id="2612"></path><path d="M551.8336 240.9984V461.312l119.0912 68.7616V309.7088l75.2128 43.4688-134.7584-258.7648-134.7584 103.168 75.2128 43.4176z" fill="#FFE088" p-id="2613"></path><path d="M670.9248 309.7088L497.0496 409.088v220.2624l173.8752-99.3792V309.7088z" fill="#E54545" p-id="2614"></path><path d="M782.848 516.4032a465.4592 465.4592 0 0 0-68.5568-144.896l-169.4208 95.6928 71.68 144.3328L783.872 517.12z" fill="#F6F6F6" p-id="2615"></path><path d="M616.5504 611.84a464.64 464.64 0 0 0-65.5872-141.1072l-5.8368-3.3792-0.4096 260.3008-220.16-127.488 0.4096-260.3008-11.0592-6.4C284.416 342.3232 261.12 364.544 248.2176 398.1824c-72.4992-41.8816-131.3792-7.936-131.5328 75.9296 0 79.2576 52.2752 174.7456 119.2448 220.6208v0.6656l382.3104 221.5424V916.48c68.3008 33.9968 122.2656-0.512 122.4192-80.8448 0.1536-81.1008-54.5792-179.3024-124.1088-223.7952z" fill="#EBEBEC" p-id="2616"></path><path d="M377.9584 340.2752v220.3136l119.04 68.7616V408.9856l75.2128 43.4688-134.7584-258.7648-134.7584 103.168 75.264 43.4176z" fill="#FF625A" p-id="2617"></path><path d="M611.3792 94.4128L437.4528 193.6896l134.7584 258.7648 173.9264-99.2768-134.7584-258.7648z" fill="#FF9997" p-id="2618"></path></svg>